<svg width="36" height="40" fill="none" xmlns="http://www.w3.org/2000/svg"><path d="M13.022 7.556a2.489 2.489 0 0 0 0 4.977h13.903l-3.218 3.218a2.49 2.49 0 0 0 3.52 3.52l7.466-7.467a2.489 2.489 0 0 0 0-3.52L27.226.819a2.489 2.489 0 1 0-3.52 3.52l3.219 3.218H13.022Z" fill="url(#a)"/><path d="M22.978 32.444a2.489 2.489 0 1 0 0-4.977H9.075l3.218-3.218a2.49 2.49 0 1 0-3.52-3.52l-7.466 7.467a2.489 2.489 0 0 0 0 3.52l7.467 7.466a2.489 2.489 0 0 0 3.519-3.52l-3.218-3.218h13.903Z" fill="url(#b)"/><defs><linearGradient id="a" x1="6.93" y1="59.377" x2="58.725" y2="24.087" gradientUnits="userSpaceOnUse"><stop stop-color="#982DEC"/><stop offset=".573" stop-color="#DC8DF8"/><stop offset=".896" stop-color="#A9C4F3"/></linearGradient><linearGradient id="b" x1="6.93" y1="59.377" x2="58.725" y2="24.087" gradientUnits="userSpaceOnUse"><stop stop-color="#982DEC"/><stop offset=".573" stop-color="#DC8DF8"/><stop offset=".896" stop-color="#A9C4F3"/></linearGradient></defs></svg>