<svg width="42" height="34" fill="none" xmlns="http://www.w3.org/2000/svg"><path fill-rule="evenodd" clip-rule="evenodd" d="M27.222.407a6.228 6.228 0 0 1 5.87 4.149H14.778a10.37 10.37 0 0 0-10.37 10.37v10.018a6.224 6.224 0 0 1-4.149-5.87V6.63A6.222 6.222 0 0 1 6.481.407h20.741Zm8.297 8.297H14.778a6.222 6.222 0 0 0-6.222 6.222V27.37a6.222 6.222 0 0 0 6.222 6.223h20.74a6.222 6.222 0 0 0 6.223-6.223V14.926a6.222 6.222 0 0 0-6.222-6.222Zm-6.223 12.444a4.148 4.148 0 1 1-8.295 0 4.148 4.148 0 0 1 8.295 0Z" fill="url(#a)"/><defs><linearGradient id="a" x1="7.821" y1="49.84" x2="54.183" y2="4.712" gradientUnits="userSpaceOnUse"><stop stop-color="#982DEC"/><stop offset=".573" stop-color="#DC8DF8"/><stop offset=".896" stop-color="#A9C4F3"/></linearGradient></defs></svg>