<svg width="38" height="34" fill="none" xmlns="http://www.w3.org/2000/svg"><path d="M33.933 7.667V3.933A3.737 3.737 0 0 0 30.2.2H5.933a5.607 5.607 0 0 0-5.6 5.6v22.4c0 4.109 3.349 5.6 5.6 5.6h28a3.737 3.737 0 0 0 3.734-3.733V11.4a3.737 3.737 0 0 0-3.734-3.733Zm-3.733 16.8h-3.733V17H30.2v7.467ZM5.933 7.667a1.869 1.869 0 0 1 0-3.734H30.2v3.734H5.933Z" fill="url(#a)"/><defs><linearGradient id="a" x1="7.139" y1="50.25" x2="53.61" y2="10.043" gradientUnits="userSpaceOnUse"><stop stop-color="#982DEC"/><stop offset=".573" stop-color="#DC8DF8"/><stop offset=".896" stop-color="#A9C4F3"/></linearGradient></defs></svg>